<mxfile host="app.diagrams.net" agent="Mozilla/5.0 (Windows NT 10.0; Win64; x64) AppleWebKit/537.36 (KHTML, like Gecko) Chrome/134.0.0.0 Safari/537.36" version="26.1.1">
  <diagram name="PÃ¡gina-1" id="vOYe0teZXls3ztBcvrhx">
    <mxGraphModel dx="880" dy="460" grid="1" gridSize="10" guides="1" tooltips="1" connect="1" arrows="1" fold="1" page="1" pageScale="1" pageWidth="827" pageHeight="1169" math="0" shadow="0">
      <root>
        <mxCell id="0" />
        <mxCell id="1" parent="0" />
        <mxCell id="Eb5xcKa3xOdtEpjUN5lR-7" value="" style="edgeStyle=orthogonalEdgeStyle;rounded=0;orthogonalLoop=1;jettySize=auto;html=1;" edge="1" parent="1" source="Eb5xcKa3xOdtEpjUN5lR-1" target="Eb5xcKa3xOdtEpjUN5lR-6">
          <mxGeometry relative="1" as="geometry" />
        </mxCell>
        <mxCell id="Eb5xcKa3xOdtEpjUN5lR-1" value="inicio" style="ellipse;whiteSpace=wrap;html=1;fillColor=#d5e8d4;strokeColor=#82b366;gradientColor=#97d077;" vertex="1" parent="1">
          <mxGeometry x="340" y="10" width="120" height="80" as="geometry" />
        </mxCell>
        <mxCell id="Eb5xcKa3xOdtEpjUN5lR-10" value="" style="edgeStyle=orthogonalEdgeStyle;rounded=0;orthogonalLoop=1;jettySize=auto;html=1;" edge="1" parent="1" source="Eb5xcKa3xOdtEpjUN5lR-6" target="Eb5xcKa3xOdtEpjUN5lR-9">
          <mxGeometry relative="1" as="geometry" />
        </mxCell>
        <mxCell id="Eb5xcKa3xOdtEpjUN5lR-6" value="horas_trab, minutos_trab&lt;div&gt;qnt_ganhah&lt;/div&gt;" style="shape=parallelogram;perimeter=parallelogramPerimeter;whiteSpace=wrap;html=1;fixedSize=1;fillColor=#d5e8d4;strokeColor=#82b366;gradientColor=#97d077;" vertex="1" parent="1">
          <mxGeometry x="310" y="110" width="180" height="60" as="geometry" />
        </mxCell>
        <mxCell id="Eb5xcKa3xOdtEpjUN5lR-12" value="" style="edgeStyle=orthogonalEdgeStyle;rounded=0;orthogonalLoop=1;jettySize=auto;html=1;" edge="1" parent="1" source="Eb5xcKa3xOdtEpjUN5lR-9" target="Eb5xcKa3xOdtEpjUN5lR-11">
          <mxGeometry relative="1" as="geometry" />
        </mxCell>
        <mxCell id="Eb5xcKa3xOdtEpjUN5lR-9" value="min_dec = minutos/60&lt;div&gt;hr_dec = hora + min_dec&lt;/div&gt;" style="whiteSpace=wrap;html=1;fillColor=#d5e8d4;strokeColor=#82b366;gradientColor=#97d077;" vertex="1" parent="1">
          <mxGeometry x="300" y="190" width="200" height="60" as="geometry" />
        </mxCell>
        <mxCell id="Eb5xcKa3xOdtEpjUN5lR-15" value="" style="edgeStyle=orthogonalEdgeStyle;rounded=0;orthogonalLoop=1;jettySize=auto;html=1;" edge="1" parent="1" source="Eb5xcKa3xOdtEpjUN5lR-11" target="Eb5xcKa3xOdtEpjUN5lR-14">
          <mxGeometry relative="1" as="geometry" />
        </mxCell>
        <mxCell id="Eb5xcKa3xOdtEpjUN5lR-11" value="salario = qnt_ganhah*horas_trab&lt;div&gt;salario_extra = salario*0.7&lt;/div&gt;" style="whiteSpace=wrap;html=1;fillColor=#d5e8d4;strokeColor=#82b366;gradientColor=#97d077;" vertex="1" parent="1">
          <mxGeometry x="295" y="270" width="210" height="60" as="geometry" />
        </mxCell>
        <mxCell id="Eb5xcKa3xOdtEpjUN5lR-19" value="" style="edgeStyle=orthogonalEdgeStyle;rounded=0;orthogonalLoop=1;jettySize=auto;html=1;" edge="1" parent="1" source="Eb5xcKa3xOdtEpjUN5lR-14" target="Eb5xcKa3xOdtEpjUN5lR-18">
          <mxGeometry relative="1" as="geometry" />
        </mxCell>
        <mxCell id="Eb5xcKa3xOdtEpjUN5lR-14" value="salario_definitivo = salario+salario_extra" style="whiteSpace=wrap;html=1;fillColor=#d5e8d4;strokeColor=#82b366;gradientColor=#97d077;" vertex="1" parent="1">
          <mxGeometry x="282.5" y="360" width="235" height="60" as="geometry" />
        </mxCell>
        <mxCell id="Eb5xcKa3xOdtEpjUN5lR-21" value="" style="edgeStyle=orthogonalEdgeStyle;rounded=0;orthogonalLoop=1;jettySize=auto;html=1;" edge="1" parent="1" source="Eb5xcKa3xOdtEpjUN5lR-18" target="Eb5xcKa3xOdtEpjUN5lR-20">
          <mxGeometry relative="1" as="geometry" />
        </mxCell>
        <mxCell id="Eb5xcKa3xOdtEpjUN5lR-18" value="resultado" style="shape=document;whiteSpace=wrap;html=1;boundedLbl=1;fillColor=#d5e8d4;strokeColor=#82b366;gradientColor=#97d077;" vertex="1" parent="1">
          <mxGeometry x="340" y="450" width="120" height="80" as="geometry" />
        </mxCell>
        <mxCell id="Eb5xcKa3xOdtEpjUN5lR-20" value="fim" style="ellipse;whiteSpace=wrap;html=1;fillColor=#d5e8d4;strokeColor=#82b366;gradientColor=#97d077;" vertex="1" parent="1">
          <mxGeometry x="360" y="560" width="80" height="80" as="geometry" />
        </mxCell>
      </root>
    </mxGraphModel>
  </diagram>
</mxfile>
